<svg width="24" height="24" viewBox="0 0 24 24" fill="none" xmlns="http://www.w3.org/2000/svg">
<line x1="12.0092" y1="8" x2="12.0092" y2="16.0229" stroke="currentColor" stroke-width="2" stroke-linecap="round" stroke-linejoin="round"/>
<line x1="16.0229" y1="12.0092" x2="7.99999" y2="12.0092" stroke="currentColor" stroke-width="2" stroke-linecap="round" stroke-linejoin="round"/>
<path d="M3 15.5858V9.38661C3 9.13784 3.09272 8.89801 3.26006 8.71393L7.70243 3.82733C7.89195 3.61885 8.16062 3.5 8.44237 3.5H15.5473C15.835 3.5 16.1088 3.62396 16.2987 3.8402L20.7514 8.91136C20.9117 9.09382 21 9.32835 21 9.57116V15.5858C21 15.851 20.8946 16.1054 20.7071 16.2929L16.2929 20.7071C16.1054 20.8946 15.851 21 15.5858 21H8.41421C8.149 21 7.89464 20.8946 7.70711 20.7071L3.29289 16.2929C3.10536 16.1054 3 15.851 3 15.5858Z" stroke="currentColor" stroke-width="2"/>
</svg>
