<svg width="24" height="24" viewBox="0 0 24 24" fill="none" xmlns="http://www.w3.org/2000/svg">
<path d="M20.125 1H7.625C6.58945 1 5.75 1.83945 5.75 2.875V4.75H3.875C2.83945 4.75 2 5.58945 2 6.625V19.125C2 20.1605 2.83945 21 3.875 21H16.375C17.4105 21 18.25 20.1605 18.25 19.125V17.25H20.125C21.1605 17.25 22 16.4105 22 15.375V2.875C22 1.83945 21.1605 1 20.125 1ZM16.1406 19.125H4.10938C4.04721 19.125 3.9876 19.1003 3.94365 19.0564C3.89969 19.0124 3.875 18.9528 3.875 18.8906V6.85938C3.875 6.79721 3.89969 6.7376 3.94365 6.69365C3.9876 6.64969 4.04721 6.625 4.10938 6.625H5.75V15.375C5.75 16.4105 6.58945 17.25 7.625 17.25H16.375V18.8906C16.375 18.9528 16.3503 19.0124 16.3064 19.0564C16.2624 19.1003 16.2028 19.125 16.1406 19.125ZM19.8906 15.375H7.85938C7.79721 15.375 7.7376 15.3503 7.69365 15.3064C7.64969 15.2624 7.625 15.2028 7.625 15.1406V3.10938C7.625 3.04721 7.64969 2.9876 7.69365 2.94365C7.7376 2.89969 7.79721 2.875 7.85938 2.875H19.8906C19.9528 2.875 20.0124 2.89969 20.0564 2.94365C20.1003 2.9876 20.125 3.04721 20.125 3.10938V15.1406C20.125 15.2028 20.1003 15.2624 20.0564 15.3064C20.0124 15.3503 19.9528 15.375 19.8906 15.375Z" fill="currentColor"/>
</svg>
