<svg width="24" height="24" viewBox="0 0 24 24" fill="none" xmlns="http://www.w3.org/2000/svg">
<path d="M21.4643 9.625H15.9286C15.3348 9.625 14.8571 9.14434 14.8571 8.54688V2.97656C14.8571 2.68008 15.0982 2.4375 15.3929 2.4375H16.4643C16.7589 2.4375 17 2.68008 17 2.97656V7.46875H21.4643C21.7589 7.46875 22 7.71133 22 8.00781V9.08594C22 9.38242 21.7589 9.625 21.4643 9.625ZM9.14286 8.54688V2.97656C9.14286 2.68008 8.90179 2.4375 8.60714 2.4375H7.53571C7.24107 2.4375 7 2.68008 7 2.97656V7.46875H2.53571C2.24107 7.46875 2 7.71133 2 8.00781V9.08594C2 9.38242 2.24107 9.625 2.53571 9.625H8.07143C8.66518 9.625 9.14286 9.14434 9.14286 8.54688ZM9.14286 22.0234V16.4531C9.14286 15.8557 8.66518 15.375 8.07143 15.375H2.53571C2.24107 15.375 2 15.6176 2 15.9141V16.9922C2 17.2887 2.24107 17.5312 2.53571 17.5312H7V22.0234C7 22.3199 7.24107 22.5625 7.53571 22.5625H8.60714C8.90179 22.5625 9.14286 22.3199 9.14286 22.0234ZM17 22.0234V17.5312H21.4643C21.7589 17.5312 22 17.2887 22 16.9922V15.9141C22 15.6176 21.7589 15.375 21.4643 15.375H15.9286C15.3348 15.375 14.8571 15.8557 14.8571 16.4531V22.0234C14.8571 22.3199 15.0982 22.5625 15.3929 22.5625H16.4643C16.7589 22.5625 17 22.3199 17 22.0234Z" fill="black"/>
</svg>
