<svg width="24" height="24" viewBox="0 0 24 24" fill="none" xmlns="http://www.w3.org/2000/svg">
<path d="M22 9.08594V3.51562C22 2.91816 21.5223 2.4375 20.9286 2.4375H15.3929C15.0982 2.4375 14.8571 2.68008 14.8571 2.97656V4.77344C14.8571 5.06992 15.0982 5.3125 15.3929 5.3125H19.1429V9.08594C19.1429 9.38242 19.3839 9.625 19.6786 9.625H21.4643C21.7589 9.625 22 9.38242 22 9.08594ZM9.14286 2.97656V4.77344C9.14286 5.06992 8.90179 5.3125 8.60714 5.3125H4.85714V9.08594C4.85714 9.38242 4.61607 9.625 4.32143 9.625H2.53572C2.24107 9.625 2 9.38242 2 9.08594V3.51562C2 2.91816 2.47768 2.4375 3.07143 2.4375H8.60714C8.90179 2.4375 9.14286 2.68008 9.14286 2.97656ZM2.53572 15.375H4.32143C4.61607 15.375 4.85714 15.6176 4.85714 15.9141V19.6875H8.60714C8.90179 19.6875 9.14286 19.9301 9.14286 20.2266V22.0234C9.14286 22.3199 8.90179 22.5625 8.60714 22.5625H3.07143C2.47768 22.5625 2 22.0818 2 21.4844V15.9141C2 15.6176 2.24107 15.375 2.53572 15.375ZM14.8571 22.0234V20.2266C14.8571 19.9301 15.0982 19.6875 15.3929 19.6875H19.1429V15.9141C19.1429 15.6176 19.3839 15.375 19.6786 15.375H21.4643C21.7589 15.375 22 15.6176 22 15.9141V21.4844C22 22.0818 21.5223 22.5625 20.9286 22.5625H15.3929C15.0982 22.5625 14.8571 22.3199 14.8571 22.0234Z" fill="black"/>
</svg>
