<svg width="24" height="24" viewBox="0 0 24 24" fill="none" xmlns="http://www.w3.org/2000/svg">
<path d="M22 8.08594V2.51562C22 1.91816 21.5223 1.4375 20.9286 1.4375H15.3929C15.0982 1.4375 14.8571 1.68008 14.8571 1.97656V3.77344C14.8571 4.06992 15.0982 4.3125 15.3929 4.3125H19.1429V8.08594C19.1429 8.38242 19.3839 8.625 19.6786 8.625H21.4643C21.7589 8.625 22 8.38242 22 8.08594ZM9.14286 1.97656V3.77344C9.14286 4.06992 8.90179 4.3125 8.60714 4.3125H4.85714V8.08594C4.85714 8.38242 4.61607 8.625 4.32143 8.625H2.53572C2.24107 8.625 2 8.38242 2 8.08594V2.51562C2 1.91816 2.47768 1.4375 3.07143 1.4375H8.60714C8.90179 1.4375 9.14286 1.68008 9.14286 1.97656ZM2.53572 14.375H4.32143C4.61607 14.375 4.85714 14.6176 4.85714 14.9141V18.6875H8.60714C8.90179 18.6875 9.14286 18.9301 9.14286 19.2266V21.0234C9.14286 21.3199 8.90179 21.5625 8.60714 21.5625H3.07143C2.47768 21.5625 2 21.0818 2 20.4844V14.9141C2 14.6176 2.24107 14.375 2.53572 14.375ZM14.8571 21.0234V19.2266C14.8571 18.9301 15.0982 18.6875 15.3929 18.6875H19.1429V14.9141C19.1429 14.6176 19.3839 14.375 19.6786 14.375H21.4643C21.7589 14.375 22 14.6176 22 14.9141V20.4844C22 21.0818 21.5223 21.5625 20.9286 21.5625H15.3929C15.0982 21.5625 14.8571 21.3199 14.8571 21.0234Z" fill="currentColor"/>
</svg>
