<svg width="24" height="24" viewBox="0 0 24 24" fill="none" xmlns="http://www.w3.org/2000/svg">
<path d="M6.77579 15.9509C8.40552 18.8361 12.0656 19.8539 14.9509 18.2242C17.8361 16.5945 18.8539 12.9344 17.2242 10.0491C15.5945 7.16386 11.9344 6.14606 9.04911 7.77579" stroke="currentColor" stroke-width="1.2"/>
<path d="M7.69671 8.13366C7.62273 8.39971 7.77843 8.67536 8.04448 8.74934L12.38 9.95495C12.646 10.0289 12.9217 9.87323 12.9956 9.60718C13.0696 9.34114 12.9139 9.06549 12.6479 8.99151L8.79411 7.91985L9.86577 4.06608C9.93975 3.80003 9.78405 3.52438 9.518 3.4504C9.25195 3.37642 8.9763 3.53212 8.90232 3.79817L7.69671 8.13366ZM8.80323 7.34045L7.93253 7.83227L8.42434 8.70297L9.29504 8.21115L8.80323 7.34045Z" fill="currentColor"/>
</svg>
